<svg role="img" viewBox="0 0 250 250" xmlns="http://www.w3.org/2000/svg" id="Actix--Streamline-Simple-Icons" height="250" width="250"><desc>Actix Streamline Icon: https://streamlinehq.com</desc><title>Actix</title><path d="M47.739583333333336 40.572916666666664c-2.8125 2.2916666666666665 -8.208333333333334 0.8125 -12.124999999999998 -3.4791666666666665 -1.625 1.625 -2.8020833333333335 3.1041666666666665 -4.281249999999999 4.729166666666667 4.281249999999999 3.4791666666666665 6.208333333333333 9.020833333333332 3.9166666666666665 11.604166666666668 -2.2916666666666665 2.8125 -7.833333333333333 2.2916666666666665 -12.114583333333332 -1.1770833333333333 -1.1875 1.625 -2.2916666666666665 3.46875 -3.4791666666666665 5.09375 4.729166666666667 3.1041666666666665 7.020833333333333 7.833333333333333 5.395833333333333 11.010416666666666s-7.020833333333333 3.4791666666666665 -12.114583333333332 0.8125c-0.8229166666666666 2 -2 3.9166666666666665 -2.8125 5.395833333333333 5.09375 2.2916666666666665 7.833333333333333 6.208333333333333 6.572916666666666 9.833333333333332 -1.1770833333333333 3.1041666666666665 -6.208333333333333 4.281249999999999 -11.302083333333332 2.8020833333333335 -0.8125 2 -1.1875 3.9166666666666665 -1.625 5.916666666666666 5.09375 1.625 8.499999999999998 5.09375 7.833333333333333 8.197916666666666 -0.8125 3.4791666666666665 -5.395833333333333 5.395833333333333 -10.5 4.729166666666667 -0.29166666666666663 2 -0.29166666666666663 4.291666666666666 -0.8125 6.208333333333333 5.104166666666666 0.8125 9.020833333333332 3.4791666666666665 9.020833333333332 7.020833333333333 0 3.5520833333333335 -4.291666666666666 5.916666666666666 -9.3125 6.208333333333333v6.208333333333333c5.104166666666666 0 9.3125 2.2916666666666665 9.833333333333332 5.395833333333333 0.29166666666666663 3.1041666666666665 -3.1041666666666665 6.572916666666666 -8.208333333333334 7.385416666666666 0.29166666666666663 2 0.8125 4.291666666666666 1.1875 6.208333333333333 5.09375 -0.8125 9.302083333333332 0.8125 10.125 3.9166666666666665 0.8125 3.1041666666666665 -2 7.020833333333333 -6.583333333333333 8.499999999999998 0.8125 2 1.1875 3.9166666666666665 2 5.916666666666666 4.729166666666667 -1.625 9.3125 -0.3020833333333333 10.489583333333332 2.2916666666666665 1.1875 3.1041666666666665 -0.8125 7.020833333333333 -5.395833333333333 9.822916666666666 0.8125 2 2 3.4791666666666665 3.1041666666666665 5.395833333333333 4.291666666666666 -2.2916666666666665 9.020833333333332 -2 10.5 0.8125 1.9895833333333333 2.8125 0 7.020833333333333 -3.4791666666666665 10.125 1.1875 1.625 2.2916666666666665 3.46875 3.9166666666666665 5.09375 3.9166666666666665 -2.8020833333333335 8.499999999999998 -3.0937499999999996 10.489583333333332 -0.8125 2.2916666666666665 2.2916666666666665 1.1875 7.020833333333333 -1.9895833333333333 10.5 1.625 1.625 3.1041666666666665 3.1041666666666665 4.729166666666667 4.281249999999999 3.46875 -3.46875 7.833333333333333 -4.729166666666667 10.489583333333332 -2.8020833333333335 2.59375 1.9895833333333333 2.2916666666666665 6.572916666666666 -0.29166666666666663 11.010416666666666 1.625 1.1770833333333333 3.46875 2.2916666666666665 5.09375 3.46875 3.1041666666666665 -3.9166666666666665 7.020833333333333 -5.906249999999999 9.833333333333332 -4.281249999999999s3.46875 6.208333333333333 1.1875 11.010416666666666c1.9895833333333333 1.1770833333333333 3.9166666666666665 1.9895833333333333 5.385416666666666 2.8020833333333335 2.2916666666666665 -4.281249999999999 6.208333333333333 -7.020833333333333 9.3125 -5.906249999999999 3.1041666666666665 1.1770833333333333 4.291666666666666 5.906249999999999 3.1041666666666665 10.489583333333332 2 0.8125 3.9166666666666665 1.1875 5.916666666666666 2 1.625 -4.729166666666667 5.09375 -7.833333333333333 8.197916666666666 -7.395833333333332 3.1041666666666665 0.8125 5.104166666666666 5.104166666666666 4.729166666666667 10.125 2 0.3020833333333333 4.291666666666666 0.8125 6.208333333333333 0.8125 0.8125 -5.09375 3.4791666666666665 -9.010416666666666 7.020833333333333 -8.499999999999998 3.4791666666666665 0 5.916666666666666 4.291666666666666 6.208333333333333 9.833333333333332h6.208333333333333c0 -5.104166666666666 2.2916666666666665 -9.3125 5.395833333333333 -9.833333333333332 3.46875 -0.29166666666666663 6.572916666666666 3.4791666666666665 7.833333333333333 8.499999999999998 1.9895833333333333 -0.29166666666666663 4.281249999999999 -0.8125 6.208333333333333 -1.1770833333333333 -1.1875 -5.104166666666666 0.8125 -9.833333333333332 3.9166666666666665 -11.010416666666666 3.46875 -0.8125 7.385416666666666 2.2916666666666665 9.010416666666666 7.833333333333333 2 -0.8125 3.9166666666666665 -1.1875 5.916666666666666 -2 -2 -5.09375 -1.1875 -10.125 1.9895833333333333 -11.604166666666668 3.1041666666666665 -1.4791666666666665 7.833333333333333 1.625 10.125 6.583333333333333 2 -0.8125 3.9166666666666665 -2 5.395833333333333 -2.8125 -2.8020833333333335 -4.729166666666667 -2.8020833333333335 -10.125 0 -12.114583333333332 3.1041666666666665 -2 8.208333333333334 0.29166666666666663 11.3125 5.09375 1.625 -1.1770833333333333 3.46875 -2.2916666666666665 5.09375 -3.9166666666666665 -3.9166666666666665 -4.281249999999999 -4.729166666666667 -9.822916666666666 -1.9895833333333333 -12.114583333333332 2.8020833333333335 -2.2916666666666665 8.197916666666666 -0.8125 12.114583333333332 3.46875 1.625 -1.625 3.1041666666666665 -3.1041666666666665 4.291666666666666 -4.281249999999999 -4.739583333333333 -3.9166666666666665 -6.208333333333333 -9.020833333333332 -4.291666666666666 -11.604166666666668 2.2916666666666665 -2.8125 7.833333333333333 -2.2916666666666665 12.416666666666666 1.625l0.29166666666666663 0.29166666666666663c1.1875 -1.625 2.8125 -3.46875 3.9166666666666665 -5.09375 -5.09375 -3.1041666666666665 -7.833333333333333 -7.833333333333333 -6.208333333333333 -11.3125 2 -3.1041666666666665 7.395833333333332 -3.46875 12.416666666666666 -0.29166666666666663l0.3020833333333333 0.29166666666666663c1.1770833333333333 -1.9895833333333333 1.9895833333333333 -3.9166666666666665 2.8020833333333335 -5.906249999999999h-0.29166666666666663c-5.395833333333333 -2 -9.020833333333332 -6.583333333333333 -7.833333333333333 -10.125 1.1770833333333333 -3.6249999999999996 7.020833333333333 -4.729166666666667 12.416666666666666 -2.2916666666666665 0.29166666666666663 0 0.29166666666666663 0.29166666666666663 0.8125 0.29166666666666663 0.8125 -1.9895833333333333 1.625 -4.281249999999999 1.9895833333333333 -6.208333333333333h-0.8125c-5.906249999999999 -1.1770833333333333 -10.125 -5.09375 -9.3125 -8.489583333333332 0.8125 -3.4791666666666665 6.208333333333333 -5.395833333333333 12.124999999999998 -4.291666666666666 0.29166666666666663 0 0.8125 0 1.1770833333333333 0.3020833333333333 0.3020833333333333 -2.2916666666666665 0.8125 -4.291666666666666 1.1875 -6.583333333333333h-1.1875c-5.906249999999999 -0.29166666666666663 -10.489583333333332 -3.46875 -10.489583333333332 -7.020833333333333 0 -3.5416666666666665 5.09375 -6.572916666666666 11.010416666666666 -6.208333333333333H250v-6.572916666666666h-1.1875c-5.906249999999999 0.8125 -11.010416666666666 -2 -11.302083333333332 -5.395833333333333 -0.29166666666666663 -3.46875 3.9166666666666665 -7.020833333333333 10.125 -7.833333333333333h1.625c-0.29166666666666663 -2.2916666666666665 -0.8125 -4.281249999999999 -1.1770833333333333 -6.572916666666666 -0.3020833333333333 0 -0.8125 0.29166666666666663 -1.6354166666666665 0.29166666666666663 -5.906249999999999 1.625 -11.302083333333332 0 -12.114583333333332 -3.46875 -1.1770833333333333 -3.4791666666666665 2.8125 -7.833333333333333 8.499999999999998 -9.3125 0.29166666666666663 0 1.1770833333333333 -0.3020833333333333 1.625 -0.3020833333333333 -0.8125 -2.2916666666666665 -1.625 -4.281249999999999 -2.2916666666666665 -6.208333333333333 -0.29166666666666663 0.3020833333333333 -0.8125 0.3020833333333333 -1.625 0.8125 -5.395833333333333 2.2916666666666665 -11.010416666666666 1.625 -12.416666666666666 -1.625 -1.625 -3.46875 1.625 -8.197916666666666 7.020833333333333 -10.489583333333332 0.8125 -0.29166666666666663 1.1875 -0.29166666666666663 2 -0.8125 -1.1875 -2 -2 -3.9166666666666665 -3.1041666666666665 -5.916666666666666 -0.3020833333333333 0.3020833333333333 -0.8125 0.8125 -1.625 1.1875 -5.104166666666666 3.1041666666666665 -10.5 3.46875 -12.9375 0.29166666666666663 -1.9895833333333333 -3.1041666666666665 0.29166666666666663 -8.197916666666666 5.395833333333333 -11.604166666666668 0.29166666666666663 -0.29166666666666663 1.1770833333333333 -0.8125 1.625 -0.8125 -1.1770833333333333 -1.9895833333333333 -2.8125 -3.46875 -4.281249999999999 -5.385416666666666 -0.3020833333333333 0.29166666666666663 -0.8125 0.8125 -1.1875 1.1770833333333333 -4.281249999999999 3.9166666666666665 -10.125 5.104166666666666 -12.416666666666666 2.2916666666666665s-0.8125 -8.197916666666666 3.4791666666666665 -12.114583333333332c0.29166666666666663 -0.3020833333333333 1.1770833333333333 -0.8229166666666666 1.625 -1.1875 -1.625 -1.625 -3.1041666666666665 -3.1041666666666665 -5.104166666666666 -4.729166666666667 -0.29166666666666663 0.29166666666666663 -0.8125 0.8125 -1.1770833333333333 1.625 -3.9166666666666665 4.729166666666667 -9.020833333333332 6.572916666666666 -12.124999999999998 4.291666666666666 -2.8020833333333335 -2.2916666666666665 -2.2916666666666665 -7.833333333333333 1.625 -12.416666666666666 0.3020833333333333 -0.3020833333333333 0.8125 -1.1875 1.1875 -1.625 -2 -1.1875 -3.4791666666666665 -2.8125 -5.395833333333333 -3.9166666666666665 -0.29166666666666663 0.29166666666666663 -0.29166666666666663 1.1770833333333333 -0.8125 1.625 -3.1041666666666665 5.09375 -7.833333333333333 7.833333333333333 -11.3125 6.208333333333333 -3.1041666666666665 -2 -3.46875 -7.395833333333332 -0.29166666666666663 -12.416666666666666 0.29166666666666663 -0.3020833333333333 0.8125 -1.1875 1.1875 -1.625 -2 -1.1875 -3.9166666666666665 -2 -6.208333333333333 -3.1041666666666665 0 0.29166666666666663 -0.3020833333333333 1.1770833333333333 -0.3020833333333333 1.625 -1.9895833333333333 5.395833333333333 -6.572916666666666 9.010416666666666 -10.125 7.833333333333333 -3.614583333333333 -1.1875 -4.729166666666667 -7.020833333333333 -2.2916666666666665 -12.416666666666666 0.3020833333333333 -0.29166666666666663 0.3020833333333333 -1.1875 0.8125 -1.625 -1.9895833333333333 -0.8125 -4.281249999999999 -1.1875 -6.572916666666666 -2 0 0.3020833333333333 0 0.8125 -0.29166666666666663 1.625 -1.1875 5.916666666666666 -5.104166666666666 10.125 -8.499999999999998 9.3125 -3.4791666666666665 -0.8125 -5.395833333333333 -6.208333333333333 -4.291666666666666 -12.114583333333332 0 -0.3020833333333333 0.3020833333333333 -1.1875 0.3020833333333333 -1.625 -2.2916666666666665 -0.3020833333333333 -4.291666666666666 -0.8125 -6.583333333333333 -0.8125v1.1770833333333333c-0.29166666666666663 5.916666666666666 -3.46875 10.5 -7.020833333333333 10.5 -3.46875 0 -6.572916666666666 -5.104166666666666 -6.197916666666666 -11.010416666666666V0.8125h-6.583333333333333v1.1875c0.8125 5.906249999999999 -1.9895833333333333 11.010416666666666 -5.395833333333333 11.302083333333332 -3.46875 0.29166666666666663 -7.020833333333333 -3.9166666666666665 -7.833333333333333 -10.125V2c-1.9895833333333333 0.29166666666666663 -4.281249999999999 0.8125 -6.208333333333333 1.1770833333333333 0 0.29166666666666663 0 0.29166666666666663 0.3020833333333333 0.8125 1.625 5.916666666666666 0 11.3125 -3.4791666666666665 12.124999999999998 -3.46875 1.1770833333333333 -7.833333333333333 -2.8125 -9.3125 -8.499999999999998V6.802083333333333c-1.9895833333333333 0.8125 -3.9166666666666665 1.625 -6.208333333333333 2.2916666666666665 0 0 0 0.29166666666666663 0.3020833333333333 0.29166666666666663 2.2916666666666665 5.395833333333333 1.625 11.010416666666666 -1.625 12.416666666666666 -3.4791666666666665 1.625 -8.208333333333334 -1.625 -10.5 -7.020833333333333V14.479166666666664c-1.9895833333333333 1.1875 -3.9166666666666665 2 -5.395833333333333 3.1041666666666665 3.1041666666666665 5.104166666666666 3.4791666666666665 10.5 0.3020833333333333 12.9375 -3.1041666666666665 1.9895833333333333 -8.208333333333334 -0.29166666666666663 -11.604166666666668 -5.395833333333333 -1.625 1.1875 -3.46875 2.8125 -5.09375 3.9166666666666665 3.46875 3.8437499999999996 4.572916666666666 9.239583333333332 1.8437499999999998 11.53125m-5.395833333333333 67.61458333333333c-4.729166666666667 -1.625 -7.385416666666666 -6.572916666666666 -5.916666666666666 -11.302083333333332 1.6354166666666665 -4.729166666666667 6.583333333333333 -7.395833333333332 11.3125 -5.916666666666666 4.729166666666667 1.625 7.385416666666666 6.572916666666666 5.906249999999999 11.3125 -1.1770833333333333 4.645833333333333 -6.572916666666666 7.385416666666666 -11.302083333333332 5.906249999999999m8.125 85.35416666666667c-22.604166666666664 -24.90625 -32.4375 -59.63541666666666 -19.135416666666664 -71.76041666666667 12.927083333333334 -11.59375 42.12499999999999 5.104166666666666 65.17708333333333 30.010416666666664 22.61458333333333 24.895833333333332 37.02083333333333 55.34374999999999 23.71875 67.46875 -13.218749999999998 11.822916666666666 -47.14583333333333 -1.1145833333333333 -69.76041666666666 -25.718749999999996m95.1875 22.61458333333333c-5.104166666666666 1.1770833333333333 -9.833333333333332 -2 -11.010416666666666 -7.020833333333333 -1.1875 -5.104166666666666 1.9895833333333333 -9.833333333333332 7.020833333333333 -11.010416666666666 5.09375 -1.1875 9.822916666666666 1.9895833333333333 11.010416666666666 7.020833333333333 0.8854166666666666 5.322916666666666 -2.21875 9.895833333333332 -7.020833333333333 11.010416666666666m63.260416666666664 -133.3125c16.697916666666664 5.395833333333333 22.604166666666664 40.9375 12.40625 72.9375s-35.541666666666664 57.86458333333333 -52.23958333333333 52.760416666666664c-16.708333333333332 -5.395833333333333 -16.708333333333332 -39.45833333333333 -6.583333333333333 -71.45833333333333 10.052083333333332 -31.625 29.70833333333333 -59.85416666666667 46.41666666666667 -54.23958333333333m-14.416666666666664 -21.135416666666664c3.4791666666666665 3.9166666666666665 3.1041666666666665 9.3125 -0.8125 12.927083333333334 -3.9166666666666665 3.6249999999999996 -9.3125 3.1041666666666665 -12.927083333333334 -0.8125 -3.6249999999999996 -3.9166666666666665 -3.1041666666666665 -9.3125 0.8125 -12.927083333333334 3.9166666666666665 -3.1041666666666665 9.822916666666666 -2.6666666666666665 12.927083333333334 0.8125m-51.135416666666664 46.854166666666664c9.3125 10.114583333333332 8.499999999999998 25.708333333333332 -1.625 35.020833333333336s-25.718749999999996 8.499999999999998 -35.03125 -1.625 -8.499999999999998 -25.718749999999996 1.625 -35.03125c9.979166666666666 -9.385416666666666 25.718749999999996 -8.562499999999998 35.03125 1.6354166666666665M103.60416666666666 26.604166666666664c32.73958333333333 -7.020833333333333 67.84375 1.9895833333333333 71.76041666666667 19.135416666666664s-25.718749999999996 33.927083333333336 -58.45833333333333 41.3125c-32.73958333333333 7.020833333333333 -66.65625 4.291666666666666 -70.27083333333333 -12.927083333333334 -4 -17.520833333333332 24.156249999999996 -40.42708333333333 56.96875 -47.520833333333336" fill="#000000" stroke-width="10.4167"></path></svg>